<svg width="225" height="225" viewBox="0 0 225 225" fill="none" xmlns="http://www.w3.org/2000/svg">
<path d="M192.798 125.559L188.725 123.192C188.725 123.192 187.753 114.448 188.437 107.68C189.4 98.172 195.579 86.742 202.9 89.4555C210.222 92.1645 199.503 101.821 197.1 109.881C194.692 117.94 192.798 125.559 192.798 125.559Z" fill="#A8D29F"/>
<path opacity="0.15" d="M192.798 125.559L188.725 123.192C188.725 123.192 187.753 114.448 188.437 107.68C189.4 98.172 195.579 86.742 202.9 89.4555C210.222 92.1645 199.503 101.821 197.1 109.881C194.692 117.94 192.798 125.559 192.798 125.559Z" fill="black"/>
<path d="M190.652 124.56C190.656 124.56 190.656 124.56 190.661 124.56C190.796 124.555 190.904 124.443 190.899 124.303C190.247 103.167 200.799 92.565 200.907 92.4615C201.006 92.367 201.006 92.2095 200.912 92.1105C200.817 92.0115 200.66 92.0115 200.561 92.106C200.453 92.214 189.747 102.964 190.404 124.317C190.413 124.456 190.521 124.56 190.652 124.56Z" fill="white"/>
<path d="M195.359 127.04L192.461 125.352C192.461 125.352 192.173 118.94 194.756 111.519C197.406 103.91 203.895 100.494 207.086 101.61C210.276 102.726 210.659 104.967 209.097 107.343C207.531 109.715 197.568 115.371 195.359 127.04Z" fill="#A8D29F"/>
<path d="M193.828 126.396C193.968 126.396 194.076 126.283 194.076 126.148C194.058 112.783 206.635 103.792 206.761 103.702C206.874 103.626 206.901 103.468 206.82 103.36C206.743 103.248 206.59 103.221 206.473 103.302C206.343 103.392 193.558 112.536 193.576 126.153C193.581 126.283 193.693 126.396 193.828 126.396Z" fill="white"/>
<path d="M38.6505 122.382L44.442 119.043C44.442 119.043 46.3005 110.007 45.0495 100.944C42.9255 85.4955 34.5375 83.187 31.329 84.2805C28.125 85.374 27.1845 89.0955 32.4585 96.732C35.5725 101.232 39.384 110.61 38.6505 122.382Z" fill="#A8D29F"/>
<g opacity="0.15">
<path opacity="0.15" d="M38.6505 122.382L44.442 119.043C44.442 119.043 46.3005 110.007 45.0495 100.944C42.9255 85.4955 34.5375 83.187 31.329 84.2805C28.125 85.374 27.1845 89.0955 32.4585 96.732C35.5725 101.232 39.384 110.61 38.6505 122.382Z" fill="#A8D29F"/>
</g>
<path d="M42.2864 117.333C42.2729 117.333 42.2594 117.333 42.2459 117.328C42.0929 117.306 41.9849 117.162 42.0029 117.009C43.6859 105.115 38.9474 92.061 33.5879 86.787C33.4754 86.679 33.4754 86.499 33.5834 86.3865C33.6914 86.274 33.8714 86.274 33.9839 86.382C39.4469 91.755 44.2799 105.021 42.5699 117.09C42.5474 117.229 42.4259 117.333 42.2864 117.333Z" fill="white"/>
<path d="M27.918 128.538C27.27 128.866 25.5555 127.39 25.0785 127.03C24.2595 126.414 23.616 125.572 23.2065 124.636C22.734 123.547 22.6575 122.404 22.887 121.239C23.004 120.636 23.2065 120.051 23.409 119.47C23.607 118.899 23.805 118.327 24.003 117.756C24.1965 117.193 24.3945 116.608 24.354 116.014C24.264 114.817 23.2515 113.926 22.3335 113.157C21.312 112.306 20.2635 111.195 20.3445 109.764C20.4075 108.657 21.0375 107.662 21.7665 106.83C22.5 105.997 23.3505 105.277 24.021 104.391C24.5025 103.756 24.8895 103 24.8625 102.204C24.8445 101.709 24.6645 101.232 24.453 100.786C23.9985 99.8279 23.373 98.9369 23.0805 97.9154C22.7835 96.8939 22.9005 95.6519 23.724 94.9769C24.399 94.4234 25.3575 94.3919 26.2215 94.4954C27.0225 94.5899 27.7875 94.9949 28.4715 95.4269C30.681 96.8129 31.833 99.5759 34.1955 100.678C35.1045 101.106 36.1215 101.241 37.08 101.547C38.0385 101.857 39.0015 102.402 39.402 103.324C40.284 105.349 38.2095 107.28 39.6765 109.251C40.131 109.858 40.725 110.353 41.211 110.938C42.5745 112.59 43.182 114.322 42.795 117.004C42.408 119.682 40.6485 121.239 39.7485 121.756C39.744 121.752 28.017 128.488 27.918 128.538Z" fill="#8EC181"/>
<path d="M34.1863 125.294C34.1818 125.294 34.1773 125.294 34.1773 125.294C34.0153 125.28 33.9028 125.141 33.9163 124.983C34.9873 113.76 30.3523 101.061 26.6893 97.2495C26.5813 97.137 26.5858 96.957 26.6983 96.849C26.8108 96.741 26.9908 96.7455 27.0988 96.858C30.8338 100.746 35.5633 113.661 34.4788 125.042C34.4698 125.19 34.3348 125.303 34.1863 125.294Z" fill="white"/>
<path d="M33.1156 111.451C33.0886 111.451 33.0616 111.442 33.0346 111.433C29.4796 110.124 24.9886 109.683 24.9436 109.683C24.7861 109.669 24.6736 109.53 24.6871 109.372C24.7006 109.215 24.8266 109.098 24.9976 109.116C25.0426 109.12 29.6056 109.566 33.2326 110.902C33.3811 110.956 33.4531 111.118 33.3991 111.267C33.3496 111.384 33.2326 111.456 33.1156 111.451Z" fill="white"/>
<path d="M212.85 157.756C212.945 126.891 168.261 101.735 113.046 101.569C57.8303 101.403 12.9919 126.289 12.8964 157.154C12.801 188.018 57.4847 213.174 112.7 213.34C167.916 213.506 212.754 188.62 212.85 157.756Z" fill="#707070"/>
<path d="M156.749 134.312L184.302 118.517C184.095 118.4 183.893 118.278 183.686 118.161C182.714 117.612 181.719 117.081 180.716 116.564L153.234 132.318C130.154 120.168 93.7801 120.312 71.2036 132.845C59.6476 139.257 53.2666 147.938 53.2396 157.284C53.2126 166.059 58.7881 174.276 68.9986 180.612L41.4451 196.407C41.6521 196.524 41.8546 196.646 42.0616 196.763C43.0336 197.312 44.0281 197.843 45.0316 198.36L72.5131 182.606C83.8081 188.55 98.2801 191.561 112.77 191.601C127.89 191.646 143.015 188.478 154.544 182.079C166.1 175.667 172.481 166.986 172.508 157.64C172.53 148.869 166.955 140.648 156.749 134.312ZM57.0916 157.289C57.1141 149.4 62.7886 141.917 73.0711 136.211C84.0826 130.1 98.5276 127.071 112.964 127.116C125.883 127.157 138.785 129.663 149.22 134.613L72.8371 178.403C62.6581 172.643 57.0691 165.15 57.0916 157.289ZM152.667 178.709C131.805 190.287 98.6131 190.787 76.5181 180.306L152.901 136.517C163.08 142.277 168.669 149.774 168.647 157.631C168.624 165.515 162.95 173.003 152.667 178.709Z" fill="#E0E0E0"/>
<path opacity="0.1" d="M172.73 169.088C172.758 159.656 159.539 151.97 143.203 151.92C126.867 151.87 113.601 159.475 113.573 168.907C113.544 178.339 126.763 186.025 143.099 186.075C159.435 186.125 172.701 178.519 172.73 169.088Z" fill="black"/>
<path opacity="0.1" d="M85.9517 152.836C85.9645 148.691 80.1544 145.313 72.9744 145.291C65.7944 145.269 59.9635 148.612 59.9507 152.758C59.9379 156.903 65.748 160.281 72.928 160.303C80.108 160.325 85.9389 156.982 85.9517 152.836Z" fill="black"/>
<path d="M106.677 87.4351L103.927 116.159C100.75 115.335 98.5409 115.254 94.8374 115.637C90.8639 116.046 83.5154 118.238 80.9774 118.085L80.1719 118.017L77.6249 117.468C77.6249 117.468 72.7514 124.673 81.5084 124.974C87.9704 125.645 96.0389 127.323 102.6 128.039C115.564 129.456 117.499 129.128 119.241 124.812C120.51 121.671 121.369 118.94 122.944 111.321C124.641 103.127 124.372 95.2605 124.453 90L106.677 87.4351Z" fill="#B16668"/>
<path d="M124.771 90.3736L106.677 87.4351C106.677 87.4351 103.752 107.834 103.054 117.18C104.17 119.61 108.918 123.683 112.387 124.637C115.623 125.528 119.907 124.821 119.907 124.821C119.907 124.821 124.569 113.837 125.28 107.123C126.211 98.2666 124.771 90.3736 124.771 90.3736Z" fill="#27DEBF"/>
<path opacity="0.4" d="M124.771 90.3736L106.677 87.4351C106.677 87.4351 103.752 107.834 103.054 117.18C104.17 119.61 108.918 123.683 112.387 124.637C115.623 125.528 119.907 124.821 119.907 124.821C119.907 124.821 124.569 113.837 125.28 107.123C126.211 98.2666 124.771 90.3736 124.771 90.3736Z" fill="black"/>
<path d="M110.758 122.782C108.391 121.554 104.647 118.075 103.221 115.168C103.158 115.879 103.099 116.554 103.054 117.175C104.17 119.605 108.918 123.678 112.387 124.632C115.623 125.523 119.907 124.816 119.907 124.816L120.474 123.426C118.854 123.979 113.814 124.371 110.758 122.782Z" fill="#37474F"/>
<path d="M74.0384 115.97C73.1789 115.358 72.5039 115.097 71.6354 115.065C70.7714 115.034 68.6069 116.082 67.9724 118.211C67.3379 120.339 67.6034 122.697 67.2884 124.254C66.9734 125.811 65.4614 128.547 64.6154 129.933C63.7739 131.319 63.3644 134.631 64.8089 137.169C65.7359 138.798 67.5404 139.208 68.6969 139.253L74.0384 115.97Z" fill="#37474F"/>
<path d="M80.4239 122.09C80.2889 122.067 80.1539 122.049 80.0189 122.036C79.1864 121.946 78.3494 121.928 77.5124 121.982C78.9074 121.383 79.9379 120.006 80.1134 118.503C80.1224 118.422 80.1674 118.022 80.1674 118.022L80.9729 118.089C81.0584 117.792 80.8694 117.473 80.6084 117.306C80.3474 117.14 80.0324 117.095 79.7264 117.05C78.5069 116.865 77.2964 116.618 76.0994 116.307C75.1679 116.069 74.1464 115.61 73.1789 115.578C71.9054 115.533 70.1189 116.667 69.3179 118.499C68.6204 120.092 68.6564 122.342 68.4989 124.02C68.4089 124.961 67.9994 125.631 67.6574 126.477C67.2614 127.445 66.0779 129.497 65.7629 130.496C65.5109 131.297 65.4209 132.147 65.4164 132.989C65.4074 133.911 65.4974 134.847 65.8079 135.716C66.2894 137.07 67.4774 138.861 68.8454 139.316C70.3709 139.212 72.0674 138.348 72.5084 136.391C72.8324 134.951 73.2059 133.25 73.5929 132.273C74.1869 130.779 75.1004 129.281 75.6989 128.484C75.7934 128.358 75.8834 128.219 75.9824 128.106C76.0814 127.989 76.1849 127.877 76.2839 127.764C77.0264 126.959 78.0389 126.527 78.9614 125.973C79.8119 125.46 80.9819 125.69 81.9044 125.712C82.0619 125.717 82.2464 125.708 82.3409 125.582C82.4084 125.492 82.4039 125.37 82.3994 125.258C82.3769 124.727 82.3499 124.191 82.2014 123.683C82.0529 123.174 81.7604 122.688 81.3104 122.405C81.0404 122.229 80.7389 122.144 80.4239 122.09Z" fill="#27DEBF"/>
<path opacity="0.4" d="M80.4239 122.09C80.2889 122.067 80.1539 122.049 80.0189 122.036C79.1864 121.946 78.3494 121.928 77.5124 121.982C78.9074 121.383 79.9379 120.006 80.1134 118.503C80.1224 118.422 80.1674 118.022 80.1674 118.022L80.9729 118.089C81.0584 117.792 80.8694 117.473 80.6084 117.306C80.3474 117.14 80.0324 117.095 79.7264 117.05C78.5069 116.865 77.2964 116.618 76.0994 116.307C75.1679 116.069 74.1464 115.61 73.1789 115.578C71.9054 115.533 70.1189 116.667 69.3179 118.499C68.6204 120.092 68.6564 122.342 68.4989 124.02C68.4089 124.961 67.9994 125.631 67.6574 126.477C67.2614 127.445 66.0779 129.497 65.7629 130.496C65.5109 131.297 65.4209 132.147 65.4164 132.989C65.4074 133.911 65.4974 134.847 65.8079 135.716C66.2894 137.07 67.4774 138.861 68.8454 139.316C70.3709 139.212 72.0674 138.348 72.5084 136.391C72.8324 134.951 73.2059 133.25 73.5929 132.273C74.1869 130.779 75.1004 129.281 75.6989 128.484C75.7934 128.358 75.8834 128.219 75.9824 128.106C76.0814 127.989 76.1849 127.877 76.2839 127.764C77.0264 126.959 78.0389 126.527 78.9614 125.973C79.8119 125.46 80.9819 125.69 81.9044 125.712C82.0619 125.717 82.2464 125.708 82.3409 125.582C82.4084 125.492 82.4039 125.37 82.3994 125.258C82.3769 124.727 82.3499 124.191 82.2014 123.683C82.0529 123.174 81.7604 122.688 81.3104 122.405C81.0404 122.229 80.7389 122.144 80.4239 122.09Z" fill="black"/>
<path d="M65.5874 134.969C66.1994 136.458 67.2794 135.896 67.9139 136.251C68.5484 136.607 69.3989 137.588 69.9299 138.312C70.4609 139.037 69.1739 139.667 67.7249 139.14C66.2804 138.609 65.1194 136.773 65.5874 134.969Z" fill="#37474F"/>
<path d="M73.0798 133.952C72.1663 132.363 70.5238 131.58 69.5518 131.369C69.2593 131.306 68.9713 131.49 68.9083 131.783C68.8453 132.075 69.0298 132.363 69.3223 132.426C69.3538 132.431 72.6523 133.362 72.7153 135.473C73.0213 135.036 73.2058 134.969 73.0798 133.952Z" fill="white"/>
<path d="M70.5508 128.39C70.2583 128.327 69.9704 128.511 69.9074 128.804C69.8444 129.096 70.0288 129.384 70.3213 129.447C70.3483 129.452 73.2598 130.235 73.6648 132.084C74.0113 131.891 74.1598 131.369 74.1328 131.063C73.2328 129.407 71.5453 128.606 70.5508 128.39Z" fill="white"/>
<path d="M71.7569 125.721C71.4644 125.658 71.1764 125.843 71.1134 126.135C71.0504 126.428 71.2349 126.716 71.5274 126.779C71.5544 126.783 74.2004 127.386 74.7629 129.906C75.1274 129.578 75.3839 129.182 75.5054 128.741C74.6684 126.851 72.8144 125.951 71.7569 125.721Z" fill="white"/>
<path d="M77.3593 126.891C76.7428 124.457 74.5289 123.336 73.3319 123.075C73.0394 123.012 72.7514 123.197 72.6884 123.489C72.6254 123.782 72.8099 124.07 73.1024 124.133C73.1339 124.137 76.0273 124.803 76.4008 127.638C76.7608 127.53 77.0938 127.305 77.3593 126.891Z" fill="white"/>
<path d="M118.683 50.1975C124.407 51.0975 128.119 52.821 128.209 59.6205C128.272 64.4085 127.813 70.965 127.782 80.298C133.114 83.0025 138.514 85.5765 143.95 88.0605C144.661 88.3845 145.314 88.6365 146.061 88.8345C146.938 89.064 147.825 89.712 148.585 90.198C150.232 91.2465 151.749 92.502 153.085 93.933C153.535 94.4145 153.972 94.9275 154.242 95.526C154.512 96.129 154.602 96.84 154.35 97.4475C154.129 97.983 153.661 98.3925 153.139 98.64C152.613 98.8875 152.032 98.982 151.452 99.027C149.364 99.189 147.267 98.6895 145.309 97.947C143.167 97.1325 141.255 95.823 139.144 95.0085C137.398 94.3335 136.021 93.87 133.573 93.069C130.909 92.196 128.29 91.323 125.923 90.5805C123.885 89.9415 120.204 88.659 118.363 87.552C115.083 85.5765 115.861 83.0835 116.446 76.734C117.261 67.8735 118.489 58.14 118.683 50.1975Z" fill="#B16668"/>
<path d="M131.026 112.658C126.562 106.974 123.07 102.65 118.971 96.9796C121.414 94.1176 122.949 91.4446 125.392 88.5421C116.883 87.2056 108.4 86.1706 99.8819 84.6316C98.9954 90.2296 97.7174 89.2531 97.7264 96.5971C97.7309 101.727 105.547 110.057 111.253 115.205C114.885 118.476 119.254 122.288 123.966 125.429C123.898 127.364 124.056 130.901 125.545 135.135C126.787 138.672 128.749 141.989 130.585 145.238C132.318 148.307 134.1 151.344 135.819 154.418C136.597 155.808 137.362 157.208 138.082 158.63C138.456 159.368 138.78 160.412 139.257 161.06C140.103 162.207 141.511 163.031 142.92 162.833C143.316 162.779 143.698 162.644 144.063 162.482C145.404 161.888 146.758 160.299 146.371 158.886C146.038 157.676 145.449 156.033 145.107 154.823C142.731 146.394 139.851 134.217 138.19 126.959C136.264 118.535 135.085 117.819 131.026 112.658Z" fill="#B16668"/>
<path d="M116.154 123.543C117.877 123.548 120.087 123.215 122.238 122.517C123.07 122.247 119.434 117.189 120.217 116.816C121.045 116.415 124.951 121.712 126.985 120.173C130.576 117.455 131.751 115.614 133.056 113.108C128.043 106.925 123.651 101.021 121.513 98.2531C122.283 96.9886 123.925 94.9861 124.771 90.3736C116.266 89.1001 100.233 87.9796 93.6628 87.4216C93.9193 90.5806 93.8158 95.0941 94.7203 98.1721C95.8633 102.065 96.8398 103.239 101.07 108.315C104.238 112.118 111.676 119.273 116.154 123.543Z" fill="#27DEBF"/>
<path opacity="0.2" d="M116.154 123.543C117.877 123.548 120.087 123.215 122.238 122.517C123.07 122.247 119.434 117.189 120.217 116.816C121.045 116.415 124.951 121.712 126.985 120.173C130.576 117.455 131.751 115.614 133.056 113.108C128.043 106.925 123.651 101.021 121.513 98.2531C122.283 96.9886 123.925 94.9861 124.771 90.3736C116.266 89.1001 100.233 87.9796 93.6628 87.4216C93.9193 90.5806 93.8158 95.0941 94.7203 98.1721C95.8633 102.065 96.8398 103.239 101.07 108.315C104.238 112.118 111.676 119.273 116.154 123.543Z" fill="#E4163A"/>
<path d="M132.372 112.257C131.386 114.62 128.43 117.936 127.219 118.854C125.874 119.876 124.983 118.913 123.318 117.657C121.653 116.402 120.154 115.007 119.317 115.592C118.48 116.177 119.182 117.581 119.821 118.994C120.46 120.407 121.554 121.685 119.781 122.04C118.395 122.319 116.046 122.463 115.083 122.517C115.456 122.873 115.821 123.219 116.158 123.548C117.882 123.552 120.091 123.219 122.242 122.522C123.075 122.252 119.439 117.194 120.222 116.82C121.05 116.42 124.956 121.716 126.99 120.177C130.581 117.459 131.755 115.619 133.06 113.112C132.826 112.824 132.601 112.541 132.372 112.257Z" fill="#455A64"/>
<path d="M138.483 167.508C138.361 168.237 138.429 169.164 138.604 169.933C139.162 170.716 139.81 170.995 141.151 171.562C142.474 172.125 144.108 172.129 145.939 173.934C147.042 175.023 149.157 176.431 151.457 176.98C153.653 177.502 157.473 177.453 159.615 176.679C161.757 175.905 162.441 175.257 162.491 173.227C154.845 170.284 139.815 159.457 138.483 167.508Z" fill="#37474F"/>
<path d="M162.22 171.567C160.902 168.759 157.306 167.972 154.719 166.496C153.544 165.825 152.428 165.042 151.371 164.178C151.227 164.061 151.083 163.944 150.948 163.818C150.925 163.796 150.898 163.773 150.876 163.755C147.946 161.087 146.826 157.428 146.38 156.335C145.948 155.273 144.067 156.933 142.515 157.793C141.052 158.603 141.102 160.092 141.223 160.794C141.093 160.362 140.782 159.696 140.085 159.489C138.964 159.161 138.388 159.246 138.388 159.246L137.92 158.324C136.89 159.305 138.028 160.785 138.366 162.558C138.699 164.331 137.893 166.775 138.739 168.089H138.744C138.798 168.201 138.852 168.309 138.924 168.404C140.049 169.925 141.601 169.947 143.694 170.856C145.435 171.612 146.965 173.111 148.666 174.258C151.087 175.887 154.471 176.09 157.059 175.739C159.637 175.383 163.539 174.375 162.22 171.567Z" fill="#27DEBF"/>
<path opacity="0.4" d="M162.22 171.567C160.902 168.759 157.306 167.972 154.719 166.496C153.544 165.825 152.428 165.042 151.371 164.178C151.227 164.061 151.083 163.944 150.948 163.818C150.925 163.796 150.898 163.773 150.876 163.755C147.946 161.087 146.826 157.428 146.38 156.335C145.948 155.273 144.067 156.933 142.515 157.793C141.052 158.603 141.102 160.092 141.223 160.794C141.093 160.362 140.782 159.696 140.085 159.489C138.964 159.161 138.388 159.246 138.388 159.246L137.92 158.324C136.89 159.305 138.028 160.785 138.366 162.558C138.699 164.331 137.893 166.775 138.739 168.089H138.744C138.798 168.201 138.852 168.309 138.924 168.404C140.049 169.925 141.601 169.947 143.694 170.856C145.435 171.612 146.965 173.111 148.666 174.258C151.087 175.887 154.471 176.09 157.059 175.739C159.637 175.383 163.539 174.375 162.22 171.567Z" fill="black"/>
<path d="M154.921 175.883C157.05 175.734 156.465 174.461 158.422 173.453C160.375 172.445 162.202 171.707 162.486 172.557C162.769 173.408 162.657 174.978 159.259 175.824C155.772 176.688 154.534 176.117 154.921 175.883Z" fill="#37474F"/>
<path d="M152.145 171.806C152.095 171.806 152.046 171.797 151.996 171.783C151.713 171.698 151.546 171.405 151.627 171.122C151.65 171.041 152.217 169.142 154.899 167.891C155.461 167.625 155.997 167.463 156.478 167.369C157.54 167.157 158.728 167.963 158.89 168.503C158.85 168.498 158.805 168.489 158.764 168.471C158.706 168.449 157.288 167.967 155.358 168.872C153.153 169.902 152.689 171.365 152.667 171.423C152.59 171.653 152.374 171.806 152.145 171.806Z" fill="white"/>
<path d="M148.833 169.965C148.783 169.965 148.734 169.961 148.684 169.943C148.396 169.862 148.23 169.56 148.315 169.277C148.338 169.2 148.873 167.418 151.555 166.163C152.199 165.861 152.775 165.681 153.27 165.582C153.949 165.411 155.227 166.428 154.903 166.586C154.561 166.518 153.549 166.424 152.01 167.139C149.805 168.17 149.355 169.556 149.355 169.569C149.283 169.812 149.067 169.965 148.833 169.965Z" fill="white"/>
<path d="M146.011 167.724C145.966 167.724 145.921 167.72 145.872 167.706C145.602 167.63 145.444 167.346 145.521 167.076C145.539 167.004 146.047 165.321 148.572 164.142C149.377 163.769 150.066 163.593 150.624 163.521C151.614 163.4 151.92 164.381 151.848 164.57C151.843 164.57 150.952 164.07 148.999 165.065C146.956 166.104 146.497 167.342 146.493 167.355C146.439 167.576 146.236 167.724 146.011 167.724Z" fill="white"/>
<path d="M143.446 165.348C143.37 165.348 143.289 165.33 143.212 165.29C142.965 165.159 142.866 164.853 142.996 164.606C143.014 164.57 144.805 161.19 148.698 161.186C148.995 161.186 149.512 161.775 149.494 162.257C145.678 161.762 143.968 164.943 143.896 165.078C143.811 165.249 143.631 165.348 143.446 165.348Z" fill="white"/>
<path d="M107.932 48.843C107.932 48.843 104.193 47.8215 100.962 48.7665C99.1123 49.311 99.1483 51.705 97.8478 54.162C97.1143 55.548 95.1253 58.9995 93.8473 67.797C92.7133 75.6045 92.9518 83.9115 93.7888 93.105C104.202 99.9405 122.283 95.301 124.767 90.369C124.078 88.1505 123.66 84.177 123.763 77.409C123.921 67.2885 128.065 51.453 118.507 50.1705L107.932 48.843Z" fill="#F9DDBF"/>
<path d="M103.405 48.3796C102.604 48.4156 101.772 48.5326 100.966 48.7666C99.1168 49.3111 99.1528 51.7051 97.8523 54.1621C97.2448 55.3096 95.7823 57.8701 94.5718 63.6931C94.8283 63.8236 95.1208 63.9181 95.4718 63.9541C101.74 64.5931 104.301 58.3111 104.782 55.2151C105.259 52.1461 104.742 48.9466 103.405 48.3796Z" fill="#37474F"/>
<path d="M97.479 62.6646L96.2415 63.2091C96.2415 63.2091 93.7035 79.6116 96.1155 94.3851C96.5835 94.6011 97.065 94.7991 97.551 94.9791C94.8105 79.9266 97.479 62.6646 97.479 62.6646Z" fill="#37474F"/>
<path d="M100.116 62.5635L98.8786 63.108C98.8786 63.108 96.2055 80.3925 98.9551 95.454C99.4231 95.5935 99.8911 95.7195 100.368 95.832C97.3305 80.559 100.116 62.5635 100.116 62.5635Z" fill="#37474F"/>
<path d="M108.162 49.3784C107.307 49.4414 107.226 49.8104 108.153 51.7319C109.08 53.6534 112.095 57.8879 115.996 57.3074C119.331 56.8079 118.863 53.8694 118.233 52.0739C118.084 51.6464 117.828 50.3729 116.779 50.1929L112.509 49.8509L108.162 49.3784Z" fill="#37474F"/>
<path d="M107.248 73.4849C107.194 73.4129 107.181 73.3319 107.208 73.2374C107.235 73.1429 107.289 73.0619 107.37 72.9989L110.308 70.6769C110.38 70.6184 110.47 70.5554 110.574 70.4789C110.677 70.4024 110.794 70.3574 110.92 70.3484L112.486 70.2134C112.581 70.2044 112.657 70.2314 112.72 70.2944C112.783 70.3574 112.81 70.4339 112.801 70.5239L112.086 78.6778C112.077 78.7723 112.036 78.8533 111.96 78.9253C111.888 78.9973 111.802 79.0378 111.708 79.0468L110.029 79.1953C109.935 79.2043 109.858 79.1773 109.795 79.1143C109.732 79.0558 109.705 78.9748 109.714 78.8848L110.196 73.3679L108.571 74.6369C108.49 74.7044 108.4 74.7314 108.31 74.7269C108.216 74.7224 108.144 74.6864 108.09 74.6144L107.248 73.4849Z" fill="#37474F"/>
<path d="M118.098 69.5924C118.737 69.5384 119.281 69.5789 119.727 69.7274C120.172 69.8714 120.532 70.0874 120.807 70.3709C121.081 70.6544 121.279 71.0009 121.392 71.4014C121.504 71.8064 121.554 72.2339 121.54 72.6839C121.527 73.0439 121.5 73.4219 121.468 73.8179C121.432 74.2139 121.392 74.5829 121.347 74.9294C121.279 75.3884 121.153 75.8294 120.969 76.2614C120.784 76.6934 120.523 77.0759 120.195 77.4134C119.866 77.7509 119.461 78.0344 118.984 78.2594C118.507 78.4844 117.945 78.6284 117.306 78.6824C116.667 78.7364 116.122 78.6959 115.677 78.5474C115.231 78.4034 114.871 78.1874 114.597 77.9039C114.322 77.6204 114.124 77.2739 114.012 76.8734C113.899 76.4684 113.85 76.0409 113.863 75.5909C113.877 75.2489 113.899 74.8799 113.935 74.4839C113.971 74.0879 114.012 73.7099 114.061 73.3454C114.129 72.8909 114.25 72.4454 114.439 72.0179C114.624 71.5859 114.885 71.2034 115.213 70.8659C115.542 70.5284 115.947 70.2449 116.424 70.0199C116.896 69.7904 117.454 69.6464 118.098 69.5924ZM118.98 75.0779C119.074 74.3579 119.137 73.6514 119.164 72.9584C119.164 72.7514 119.151 72.5579 119.119 72.3869C119.088 72.2159 119.025 72.0674 118.935 71.9459C118.845 71.8244 118.714 71.7344 118.552 71.6714C118.386 71.6129 118.179 71.5904 117.922 71.6129C117.666 71.6354 117.45 71.6939 117.27 71.7839C117.09 71.8739 116.946 71.9909 116.833 72.1304C116.721 72.2699 116.631 72.4319 116.563 72.6119C116.496 72.7919 116.451 72.9899 116.424 73.2014C116.32 73.9034 116.257 74.6099 116.239 75.3209C116.23 75.5324 116.239 75.7214 116.271 75.8969C116.302 76.0679 116.365 76.2164 116.46 76.3379C116.554 76.4594 116.685 76.5494 116.851 76.6124C117.013 76.6709 117.225 76.6934 117.481 76.6709C117.738 76.6484 117.954 76.5899 118.134 76.4999C118.309 76.4099 118.458 76.2929 118.579 76.1534C118.696 76.0139 118.786 75.8519 118.849 75.6719C118.908 75.4829 118.953 75.2894 118.98 75.0779Z" fill="#37474F"/>
<path d="M106.006 42.5971C105.952 42.2236 105.961 41.8321 106.011 41.4541C105.421 41.1976 104.989 40.6261 104.854 39.9961C104.719 39.3661 104.863 38.6911 105.201 38.1421C105.592 37.4986 106.137 37.1251 106.704 36.6796C106.866 36.5536 107.073 36.2431 106.951 36.0271C106.767 35.6941 106.137 35.7976 105.84 35.6896C105.381 35.5231 104.976 35.2036 104.692 34.8076C104.373 34.3576 104.211 33.8086 104.175 33.2551C104.134 32.6926 104.233 32.0896 104.553 31.6171C104.697 31.4056 104.872 31.2526 105.066 31.0861C105.151 31.0141 105.61 30.7126 105.831 30.6631C105.336 30.2896 104.769 29.7361 104.58 29.1331C104.368 28.4671 104.301 27.7471 104.584 27.0856C104.863 26.4421 105.268 25.9921 106.033 25.6456C106.798 25.2946 108.022 25.4386 108.126 25.6726C107.5 24.2911 107.784 22.5541 108.801 21.4291C109.435 20.7316 110.331 20.2906 111.262 20.1646C111.528 20.1286 112.909 20.0836 113.616 20.5966C113.683 19.9126 114.399 19.2061 115.123 18.9046C115.848 18.6031 116.676 18.6121 117.423 18.8461C118.372 19.1431 119.308 19.8001 120.271 19.5526C120.442 19.5076 121.306 19.2466 121.306 19.2466C121.513 19.2916 121.14 19.7146 121.18 19.9216C121.261 20.3176 121.059 20.7766 120.874 21.1141C119.988 22.7251 118.012 23.3956 116.185 23.5846C115.281 23.6791 114.363 23.6881 113.467 23.8726C112.576 24.0571 111.685 24.4351 111.1 25.1326C110.569 25.7626 110.34 26.5861 110.151 27.3871C109.534 30.0466 109.269 32.7916 109.368 35.5231C109.449 37.7596 109.777 40.0636 109.237 42.2731C109.066 42.9841 109.422 44.3791 108.562 44.4691C107.635 44.5636 106.623 44.2036 106.209 43.3081C106.105 43.0876 106.042 42.8446 106.006 42.5971Z" fill="#263238"/>
<path d="M111.397 31.0364C110.884 35.9909 114.327 40.4054 119.083 40.8959C123.84 41.3864 127.894 37.7414 128.619 32.8139C129.901 24.0929 125.689 23.4449 120.933 22.9544C116.176 22.4639 111.91 26.0819 111.397 31.0364Z" fill="#263238"/>
<path d="M106.551 27.0224C107.721 25.5554 108.643 25.8884 108.643 25.8884L108.517 33.5879L109.557 33.9164L108.585 44.2259C108.585 44.2259 107.851 43.8164 107.428 42.7004C107.145 41.9444 106.834 37.5119 106.672 34.8524C106.677 34.8524 105.552 28.2824 106.551 27.0224Z" fill="#263238"/>
<path d="M109.233 35.6131C108.702 35.8741 108.094 34.7986 107.545 34.0651C107.001 33.3316 105.084 32.2066 103.855 34.3036C102.604 36.4411 104.202 39.5956 105.732 40.2751C108.364 41.4451 108.963 39.6676 108.963 39.6676L108.112 49.9276C112.099 59.5396 120.973 58.1131 117.004 50.5711L117.319 47.4526C117.319 47.4526 119.749 48.0961 120.973 48.0286C123.012 47.9116 124.443 46.3951 125.284 44.1991C126.634 40.6711 127.309 37.7776 127.215 30.5551C127.116 22.6396 118.386 21.6541 113.35 24.2596C108.315 26.8741 109.233 35.6131 109.233 35.6131Z" fill="#B16668"/>
<path d="M123.259 29.6018C119.196 29.2868 116.77 28.1753 113.463 27.4283C113.238 27.3788 112.999 27.3293 112.783 27.4013C112.009 27.6623 111.613 29.9483 111.415 30.5963C110.745 32.7923 109.989 36.5543 109.147 36.4823C108.895 36.4598 108.112 34.7138 107.55 34.0613C106.776 33.1568 108.643 25.8938 108.643 25.8848C108.706 25.6328 108.526 25.1468 108.544 24.8588C108.589 24.1433 108.873 23.6213 109.264 23.0453C110.011 21.9428 111.258 21.2543 112.518 20.9033C114.88 20.2508 117.36 20.6153 119.722 19.8368C120.667 19.5263 121.567 19.0628 122.548 18.9008C123.529 18.7388 124.659 18.9503 125.253 19.7513C125.644 20.2778 125.739 20.9663 125.779 21.6233C126.315 21.0518 126.886 20.4623 127.629 20.2193C129.006 19.7693 130.558 20.7593 131.103 22.1048C131.647 23.4458 131.386 24.9983 130.824 26.3348C130.639 26.7713 130.423 27.1988 130.131 27.5723C128.659 29.4578 125.455 29.7683 123.259 29.6018Z" fill="#263238"/>
<path d="M107.91 26.19L105.066 24.192C105.588 23.337 106.645 23.0895 107.428 23.643C108.22 24.1965 108.432 25.335 107.91 26.19Z" fill="#263238"/>
<path d="M117.324 47.4571C117.324 47.4571 112.945 46.0576 111.474 45.0316C110.488 44.3431 109.728 43.2496 109.543 42.5791C109.543 42.5791 109.692 43.9921 110.502 45.3331C111.487 46.9756 117.198 48.6946 117.198 48.6946L117.324 47.4571Z" fill="#9A4A4D"/>
<path d="M117.49 35.289C117.436 35.8245 116.991 36.216 116.496 36.162C116.001 36.108 115.645 35.631 115.699 35.0955C115.753 34.56 116.199 34.1685 116.694 34.2225C117.189 34.2765 117.549 34.7535 117.49 35.289Z" fill="#263238"/>
<path d="M116.73 31.734L114.7 32.6385C114.475 32.0355 114.75 31.3425 115.312 31.095C115.87 30.843 116.505 31.131 116.73 31.734Z" fill="#263238"/>
<path d="M117.495 41.8049L119.457 42.8174C119.191 43.4069 118.534 43.6589 117.994 43.3799C117.454 43.1009 117.229 42.3944 117.495 41.8049Z" fill="#9A4A4D"/>
<path d="M125.779 33.858L124.177 32.274C124.587 31.788 125.28 31.752 125.721 32.1885C126.162 32.625 126.189 33.372 125.779 33.858Z" fill="#263238"/>
<path d="M124.974 35.7929C124.92 36.3284 124.474 36.7199 123.979 36.6659C123.484 36.6119 123.129 36.1349 123.183 35.5994C123.237 35.0639 123.682 34.6724 124.177 34.7264C124.672 34.7759 125.032 35.2529 124.974 35.7929Z" fill="#263238"/>
<path d="M120.253 34.5464L119.776 40.2209L123.066 39.8114L120.253 34.5464Z" fill="#9A4A4D"/>
<path d="M86.2784 96.8355C85.2299 94.95 84.7844 93.2535 84.4514 91.62C84.8024 92.0295 85.3559 93.132 86.6654 93.7665C87.3764 94.113 88.6589 94.176 88.9064 93.537C89.1539 92.898 87.8669 92.25 87.4619 91.512C86.9489 90.567 85.0364 87.75 84.1139 86.67C83.7719 86.2695 83.3309 85.7925 83.3489 84.924C83.4299 80.226 84.1364 75.1815 84.2849 70.3755C87.7274 67.9275 93.5054 65.2455 96.6104 63.27C99.4229 62.748 100.728 61.3575 101.547 60.48C102.843 59.085 104.112 55.9845 104.121 52.9875C104.125 51.3855 103.846 49.7295 103.396 49.032C102.771 48.366 101.191 48.2265 97.9694 49.563C96.6104 50.1255 93.1634 51.9795 87.3089 55.971C84.2174 58.0815 79.3124 61.182 75.7709 65.2185C74.3129 66.879 75.7799 81.8235 75.9959 85.05C76.1129 86.796 76.3649 90.6525 77.0129 93.744C77.8229 97.596 80.0009 100.868 82.8584 100.877C87.4619 100.881 87.5339 99.099 86.2784 96.8355Z" fill="#B16668"/>
<path d="M164.999 107.637C169.779 101.359 168.565 92.3944 162.287 87.6142C156.009 82.834 147.045 84.0481 142.264 90.326C137.484 96.6039 138.698 105.568 144.976 110.348C151.254 115.129 160.219 113.915 164.999 107.637Z" fill="#F8914C"/>
<path opacity="0.1" d="M167.58 102.083C166.522 106.794 157.918 111.987 149.827 106.7C141.705 101.39 142.749 89.7347 149.886 85.1897C143.833 86.8322 139.369 92.3537 139.347 98.9327C139.324 106.821 145.701 113.238 153.589 113.261C160.429 113.288 166.158 108.5 167.58 102.083Z" fill="black"/>
<path d="M162.936 93.7757C165.024 94.5992 166.711 96.6287 167.913 98.5547C167.899 98.1632 167.877 97.7762 167.832 97.3892C166.63 95.6612 165.055 93.9917 163.147 93.2357C161.617 92.6327 160.038 92.6732 158.445 93.3572C158.022 92.8487 157.581 92.3492 157.108 91.8497C156.699 91.4177 156.294 91.0262 155.889 90.6572C159.583 88.9877 162.058 88.9652 164.254 89.4197C164.034 89.1722 163.8 88.9382 163.561 88.7087C161.419 88.3937 158.953 88.6007 155.416 90.2432C154.746 89.6762 154.08 89.1857 153.418 88.7717C155.313 87.6107 156.163 86.3912 156.06 84.9017C155.866 84.8702 155.673 84.8387 155.479 84.8162C155.596 85.9547 155.056 87.1607 152.856 88.4342C150.696 87.1922 148.612 86.6837 146.686 86.4992C146.398 86.6567 146.119 86.8277 145.849 87.0077C147.856 87.1067 150.016 87.5207 152.271 88.7537C150.286 89.7707 148.144 90.2207 146.065 90.6527C144.288 91.0262 142.569 91.3817 141.12 92.0882C140.958 92.3852 140.805 92.6912 140.661 93.0017C142.177 92.0567 144.139 91.6472 146.182 91.2197C148.41 90.7562 150.709 90.2702 152.856 89.0957C153.513 89.4917 154.174 89.9642 154.845 90.5177C149.76 93.1187 143.446 100.071 142.969 108.486C143.149 108.689 143.334 108.882 143.523 109.071C143.725 100.517 150.228 93.4202 155.322 90.9227C155.776 91.3232 156.231 91.7597 156.69 92.2457C157.117 92.7002 157.527 93.1547 157.909 93.6137C153.126 96.1247 152.914 102.965 152.698 110.196C152.667 111.195 152.635 112.208 152.595 113.225C152.784 113.238 152.977 113.247 153.171 113.256C153.216 112.239 153.247 111.218 153.279 110.219C153.495 103.109 153.697 96.3857 158.292 94.0772C162.238 98.9732 163.741 104.202 162.841 109.913C163.071 109.719 163.296 109.517 163.512 109.31C164.218 103.752 162.67 98.6357 158.836 93.8342C160.227 93.2717 161.604 93.2492 162.936 93.7757Z" fill="#455A64"/>
</svg>
